<svg xmlns="http://www.w3.org/2000/svg" viewBox="0 0 64 64" fill="none">
  <!-- Background gradient circle -->
  <defs>
    <linearGradient id="grad1" x1="0%" y1="0%" x2="100%" y2="100%">
      <stop offset="0%" style="stop-color:#7C3AED;stop-opacity:1" />
      <stop offset="100%" style="stop-color:#06B6D4;stop-opacity:1" />
    </linearGradient>
  </defs>
  
  <!-- Background circle -->
  <circle cx="32" cy="32" r="32" fill="url(#grad1)"/>
  
  <!-- Office building icon -->
  <path d="M42 48V20C42 18.8954 41.1046 18 40 18H24C22.8954 18 22 18.8954 22 20V48M42 48H48M42 48H38M22 48H16M22 48H26M26 48V43C26 41.8954 26.8954 41 28 41H36C37.1046 41 38 41.8954 38 43V48M26 48H38M28 22H30M28 26H30M34 22H36M34 26H36M28 30H30M34 30H36" 
        stroke="white" 
        stroke-width="2.5" 
        stroke-linecap="round" 
        stroke-linejoin="round"/>
</svg>
